# xmcd
#
# Track frame offsets:
#	150
#	8077
#	15362
#	24303
#	32750
#	41070
#	49144
#	57742
#	68121
#	77601
#	88836
#	96908
#	105629
#	114816
#	126109
#	133337
#	143114
#	156460
#	165649
#	174904
#	183412
#	195302
#	204052
#	212983
#	222577
#	232032
#	242363
#	252193
#	262328
#
# Disc length: 3600 seconds
#
# Revision: 1
# Processed by: cddbd v1.4PL0 Copyright (c) Steve Scherf et al.
# Submitted via: Gronk 1.4
#
DISCID=970e0e1d
DTITLE=Charlie McCoy - ALL AMERICAN HARP SOLOS
DYEAR=1998
DGENRE=country
TTITLE0=Ripples
TTITLE1=Straight Arrow
TTITLE2=Shuffling
TTITLE3=Waltzing
TTITLE4=5 Bend Polka
TTITLE5=Minor Bends
TTITLE6=The Goose Is Loose
TTITLE7=Amber Glow
TTITLE8=The Full Minor
TTITLE9=Caribbean Nights
TTITLE10=Bells
TTITLE11=Appalachian Aire
TTITLE12=Smokey Mountain Dreams
TTITLE13=A Song For Dixie
TTITLE14=Wagons Westward
TTITLE15=Newfound Gap
TTITLE16=Pour Jordanna
TTITLE17=Steelin' Licks
TTITLE18=White Water
TTITLE19=Foxy
TTITLE20=Champ De Fleurs
TTITLE21=Slow Bends
TTITLE22=The Blues Gives Me A Thrill
TTITLE23=From Both Sides
TTITLE24=Boudin Et Etoufee
TTITLE25=The Big Split
TTITLE26=Hunker Down
TTITLE27=All Tuned Up
TTITLE28=T.G.V.
EXTD=
EXTT0=
EXTT1=
EXTT2=
EXTT3=
EXTT4=
EXTT5=
EXTT6=
EXTT7=
EXTT8=
EXTT9=
EXTT10=
EXTT11=
EXTT12=
EXTT13=
EXTT14=
EXTT15=
EXTT16=
EXTT17=
EXTT18=
EXTT19=
EXTT20=
EXTT21=
EXTT22=
EXTT23=
EXTT24=
EXTT25=
EXTT26=
EXTT27=
EXTT28=
PLAYORDER=
